<svg version="1.1" id="Layer_1" xmlns="http://www.w3.org/2000/svg" xmlns:xlink="http://www.w3.org/1999/xlink" x="0px" y="0px"
	 width="100%" viewBox="0 0 640 896" enable-background="new 0 0 640 896" xml:space="preserve">
<path fill="#000000" opacity="1.000000" stroke="none" 
	d="
M252.810211,748.101074 
	C246.062027,730.604858 241.930038,712.885376 239.654312,694.653503 
	C237.917038,680.735535 237.347137,666.797546 237.724426,652.817810 
	C237.847549,648.255737 236.094940,646.851379 231.838333,647.402893 
	C222.112747,648.662964 212.237396,648.434814 202.567657,650.296265 
	C201.915939,650.421753 200.867294,650.186340 200.635086,650.537048 
	C196.619263,656.603821 190.571198,652.730225 185.542496,653.749207 
	C163.971817,658.120239 143.736160,666.048828 124.790672,677.213501 
	C120.166481,679.938538 114.752884,681.693665 111.052223,687.232178 
	C116.714676,690.277832 122.540009,690.499146 128.169342,690.746094 
	C136.484283,691.110962 144.828674,690.751770 153.158844,690.847229 
	C156.811890,690.889099 160.544815,690.886841 164.092300,691.623291 
	C169.720810,692.791504 175.188873,693.489502 180.767380,690.984070 
	C176.453888,696.456299 171.009247,700.469238 165.145752,703.783142 
	C155.049637,709.489258 144.223495,713.309448 132.561813,714.020325 
	C124.337051,714.521606 116.311043,712.656555 108.462082,710.480164 
	C93.323265,706.282288 77.978561,705.323608 62.450806,706.971680 
	C58.729374,707.366699 53.823875,705.453552 51.491856,708.589600 
	C47.759396,713.609009 46.552219,720.033203 45.010082,726.099121 
	C48.189407,727.991638 50.892948,726.173279 53.562710,725.821228 
	C77.080788,722.719299 100.188957,725.330383 123.466980,729.092896 
	C142.444366,732.160217 160.156509,726.834045 175.482681,714.895752 
	C190.080765,703.524658 200.596100,689.311218 205.179108,671.079651 
	C206.125275,667.315796 207.538452,663.630493 212.060776,662.735229 
	C219.163864,661.329041 224.057144,666.437927 222.532806,673.607361 
	C214.523651,711.276550 182.430481,741.661011 144.345093,746.864319 
	C132.100876,748.537109 119.807281,747.101196 107.633942,744.475830 
	C92.535149,741.219482 77.190979,741.706970 61.894360,742.943176 
	C48.770451,744.003662 36.143074,748.024353 23.113546,749.688416 
	C22.327164,749.788818 21.528637,749.794067 20.367273,749.866577 
	C19.988346,745.046631 21.856300,740.906189 23.047710,736.733398 
	C30.190016,711.718079 38.577785,687.140991 50.902859,664.131897 
	C61.510181,644.329712 75.214806,626.964783 94.296234,614.702271 
	C128.452667,592.752014 174.618698,597.412842 204.193512,625.297668 
	C207.694641,628.598755 211.013550,632.391174 217.001083,630.139648 
	C216.449799,628.194763 214.761932,627.319336 213.442734,626.213074 
	C185.017792,602.375732 166.791168,572.515747 159.085754,536.070312 
	C154.125900,512.610901 155.477905,489.609955 160.948334,466.465332 
	C170.708496,425.171387 189.416519,388.092651 213.122986,353.275574 
	C221.379349,341.149628 230.345673,329.551636 239.492767,318.094421 
	C241.247665,315.896332 242.494400,313.674622 241.900223,310.805511 
	C237.308762,288.634064 236.961975,266.154907 237.793365,243.698334 
	C239.019043,210.592041 245.878250,178.783386 262.177185,149.520126 
	C281.691315,114.484375 311.441467,92.394516 349.541840,81.178963 
	C375.028595,73.676453 401.116974,72.171310 427.580505,73.432755 
	C449.553802,74.480164 470.886566,78.009010 491.233978,86.413208 
	C528.485901,101.799568 553.912598,128.634705 568.640991,166.125549 
	C579.564697,193.931580 584.327271,222.700485 584.346924,252.411652 
	C584.354675,264.076782 584.247559,275.743958 584.445374,287.405914 
	C584.513000,291.394440 583.327576,293.094971 579.102356,293.084167 
	C545.440247,292.998260 511.777618,293.023590 478.115601,293.138885 
	C474.042694,293.152802 472.553345,291.739624 472.609253,287.597748 
	C472.791351,274.102081 472.794708,260.600403 472.613739,247.104431 
	C472.454498,235.226089 470.436615,223.648254 466.168243,212.495209 
	C459.569183,195.252106 446.846283,185.366745 429.045837,181.851242 
	C413.615753,178.803879 398.468079,180.056244 384.193329,186.930038 
	C368.605804,194.435989 361.092621,208.218094 357.784668,224.290710 
	C353.613007,244.559952 353.893768,265.017273 358.931427,285.131866 
	C364.369904,306.846832 375.703644,325.604279 389.562653,342.958099 
	C406.367859,364.001038 425.673157,382.605103 445.744171,400.436920 
	C473.155792,424.790405 500.491333,449.208862 524.193604,477.336304 
	C543.182617,499.870544 559.679199,523.962830 570.846619,551.447632 
	C578.971497,571.444031 584.132446,592.085266 586.616211,613.560425 
	C588.458618,629.490662 589.577576,645.397522 589.026733,661.389160 
	C587.854492,695.417480 582.742554,728.640930 567.309631,759.510559 
	C548.407104,797.320190 518.348022,821.851013 478.134064,834.439453 
	C448.211884,843.806274 417.652008,844.666748 386.737976,842.488586 
	C362.496490,840.780579 339.474030,834.707336 318.012238,823.369812 
	C286.721466,806.839966 265.699829,781.193237 252.810211,748.101074 
M329.736267,456.764740 
	C328.578094,455.567566 327.424835,454.365601 326.260986,453.173950 
	C295.656647,421.838135 268.853149,387.877747 252.578644,346.626740 
	C251.729324,344.473938 250.559219,342.429169 247.739120,342.045746 
	C247.163269,342.677246 246.535095,343.233398 246.065186,343.900940 
	C234.657547,360.106293 223.051971,376.179657 212.807510,393.168976 
	C198.886673,416.255188 187.866226,440.625183 181.793961,466.949890 
	C176.706421,489.005676 175.244583,511.341248 179.731979,533.754150 
	C184.786697,559.000671 197.368210,580.185242 214.777817,598.842041 
	C233.279572,618.669067 257.432983,628.488770 282.103912,637.469788 
	C282.946014,637.776306 284.069550,638.137756 284.867828,636.773987 
	C282.506958,626.799500 277.225861,617.802185 273.765045,608.114014 
	C272.193298,603.714233 269.882904,600.153137 265.675507,597.810120 
	C263.733185,596.728455 261.695343,595.375244 261.046539,592.640930 
	C265.800568,590.912659 265.444397,587.239075 264.141083,583.620239 
	C259.797180,571.559082 256.769470,559.132629 254.638382,546.556458 
	C253.184662,537.977600 249.447876,531.081543 243.863739,524.616028 
	C234.174896,513.397949 224.870590,501.844299 215.538162,490.323547 
	C211.185059,484.949707 211.483170,478.907990 215.911194,475.169983 
	C220.430222,471.355225 226.397583,471.946289 231.026611,476.984802 
	C234.516403,480.783295 237.662582,484.895813 241.013321,488.824554 
	C242.119797,490.121887 242.770279,492.144318 245.366486,491.834381 
	C245.507736,491.040771 245.803101,490.253113 245.762222,489.483307 
	C244.778824,470.965820 247.049042,452.567566 247.844528,434.118195 
	C248.166412,426.652191 249.052185,419.193726 250.031967,411.778168 
	C250.822998,405.791016 255.013153,402.463409 260.655823,402.702332 
	C265.858734,402.922607 269.617706,406.704651 270.045563,412.549652 
	C270.263245,415.523590 270.160828,418.560120 269.835785,421.528168 
	C267.987244,438.408203 266.230347,455.268127 266.164398,472.300751 
	C266.082001,493.568665 269.149323,514.413086 273.255463,535.174377 
	C273.609100,536.962463 273.659851,538.879028 275.969025,539.338745 
	C277.904205,538.533569 278.610474,536.769592 279.459381,535.187866 
	C286.008636,522.984497 293.205200,511.192444 302.232025,500.646149 
	C307.743378,494.207031 312.939331,487.387512 319.920166,482.399933 
	C324.312378,479.261810 329.024078,479.783051 332.668976,483.294525 
	C336.213562,486.709259 336.770691,490.871429 333.966034,495.545258 
	C332.785248,497.513000 331.137207,499.233093 329.542206,500.914581 
	C310.737976,520.738403 295.959808,542.870605 287.894989,569.365356 
	C284.593628,580.211121 288.033417,588.900818 293.069244,597.687866 
	C294.318756,599.868103 296.245209,601.990723 296.171936,604.391235 
	C296.024231,609.230103 298.592499,612.916260 300.409912,616.947327 
	C315.475952,650.364746 334.203491,681.552551 357.229614,710.115601 
	C366.066071,721.076904 376.117798,730.376648 390.452271,733.463257 
	C400.096741,735.539978 409.830933,736.031982 419.691101,735.009644 
	C429.801117,733.961548 439.281647,731.414307 447.661316,725.414185 
	C462.908447,714.496826 467.898407,698.085449 470.432739,680.919250 
	C472.741608,665.280090 472.170410,649.522888 469.496857,633.770203 
	C466.568085,616.513733 461.029114,600.370056 452.425171,585.195740 
	C441.815002,566.483215 427.864410,550.402893 413.015198,535.026733 
	C411.999786,533.975281 411.014984,532.753113 409.169495,532.895264 
	C407.782227,534.466248 407.955597,536.584656 407.533936,538.467102 
	C407.101105,540.399353 407.216003,542.448669 406.860077,544.404602 
	C403.019165,565.511658 394.731659,584.822571 383.070587,602.736328 
	C374.477020,615.937744 363.973663,627.516724 352.575928,638.330444 
	C349.284332,641.453369 345.642792,642.156006 341.580200,640.269653 
	C337.801147,638.515015 336.529572,635.366333 336.584137,631.297729 
	C336.646118,626.679993 338.315582,622.841492 341.480591,619.651428 
	C344.175232,616.935486 347.317902,614.635620 349.832550,611.773987 
	C373.783936,584.517578 389.438477,553.973450 387.775818,516.439514 
	C387.571747,511.833130 386.190552,508.613983 382.802002,505.671417 
	C364.811340,490.048676 347.015686,474.207031 329.736267,456.764740 
M172.366623,638.723816 
	C174.299759,638.231262 176.279129,637.870239 178.153824,637.211365 
	C180.301620,636.456665 182.859528,635.975647 183.266037,633.093323 
	C183.673264,630.205933 181.082947,629.527100 179.356201,628.545044 
	C153.638428,613.919128 128.037842,615.127625 103.256439,630.411377 
	C84.773438,641.810608 73.507172,659.571594 64.082962,678.591736 
	C63.329845,680.111694 63.109787,681.736145 63.073029,683.433105 
	C63.006454,686.506836 64.270554,687.884521 67.341347,686.895142 
	C69.711098,686.131714 72.109222,685.349487 74.325981,684.238770 
	C80.010788,681.390320 85.547684,680.382263 91.365120,684.025879 
	C93.601692,685.426697 96.299019,686.199219 99.037300,685.720459 
	C101.159584,685.349365 102.837906,684.473511 102.068222,681.682739 
	C99.804909,673.476013 100.971313,670.776489 108.074577,666.315735 
	C127.835503,653.905884 149.279984,645.419739 172.366623,638.723816 
z"/>
<path fill="#000000" opacity="1.000000" stroke="none" 
	d="
M349.132935,577.473206 
	C338.588409,587.911987 326.540649,595.403687 312.988373,600.516113 
	C310.168640,601.579773 307.491425,602.030640 305.583344,598.794617 
	C305.226837,598.190125 304.246735,597.600952 303.555023,597.601685 
	C297.452209,597.608154 298.060791,594.043823 299.002075,589.800476 
	C302.144379,575.635315 308.162354,563.175842 319.557983,553.744568 
	C320.197632,553.215210 320.711548,552.508972 321.401367,552.068970 
	C325.862579,549.223328 330.170868,545.675354 336.047638,547.856567 
	C342.035370,550.078979 343.247467,555.215088 343.598877,560.746521 
	C343.927307,565.916443 343.781738,571.181335 349.319550,574.185059 
	C350.541962,574.848083 350.202118,576.196350 349.132935,577.473206 
z"/>
<path fill="#000000" opacity="1.000000" stroke="none" 
	d="
M196.149780,494.956177 
	C194.560059,499.375275 194.930923,501.970276 199.779129,503.765808 
	C205.877960,506.024506 210.361893,510.851349 212.742752,516.948425 
	C214.580414,521.654419 217.521942,525.213806 221.172806,528.483948 
	C230.933014,537.226196 237.650940,548.366638 244.711060,559.175354 
	C247.343765,563.205872 248.703323,568.047363 248.142502,573.032410 
	C247.762711,576.408264 249.921005,579.356995 249.673492,582.656921 
	C247.177658,583.576538 246.004669,581.754944 244.757111,580.658569 
	C214.827423,554.356323 192.915161,523.116882 185.217346,483.237701 
	C184.622498,480.156006 182.947281,475.879700 187.054886,474.467346 
	C191.538574,472.925629 193.934113,476.864899 195.647583,480.372589 
	C197.877686,484.937836 197.430298,489.762207 196.149780,494.956177 
z"/>
</svg>