<svg version="1.1" id="Layer_1" xmlns="http://www.w3.org/2000/svg" xmlns:xlink="http://www.w3.org/1999/xlink" x="0px" y="0px"
	 width="100%" viewBox="0 0 960 720" enable-background="new 0 0 960 720" xml:space="preserve">
<path fill="#010101" opacity="1.000000" stroke="none" 
	d="
M688.000000,721.000000 
	C458.666748,721.000000 229.833466,721.000000 1.000154,721.000000 
	C1.000102,481.000153 1.000102,241.000275 1.000051,1.000314 
	C320.999756,1.000210 640.999512,1.000210 960.999451,1.000105 
	C960.999634,240.999695 960.999634,480.999390 960.999817,720.999512 
	C870.166687,721.000000 779.333313,721.000000 688.000000,721.000000 
M448.063416,355.865692 
	C457.664459,355.865692 467.265503,355.865692 476.882324,355.865692 
	C476.882324,286.144012 476.882324,217.075897 476.882324,148.193787 
	C461.119232,148.193787 445.713867,148.193787 430.411072,148.193787 
	C423.496033,196.315262 416.648102,243.969925 409.800140,291.624603 
	C409.489319,291.623291 409.178497,291.622009 408.867676,291.620697 
	C401.967499,243.771179 395.067352,195.921646 388.187683,148.214417 
	C372.286835,148.214417 356.909973,148.214417 341.562012,148.214417 
	C341.562012,217.607040 341.562012,286.517059 341.562012,355.523621 
	C351.439758,355.523621 360.993042,355.523621 371.031036,355.523621 
	C371.031036,307.350403 371.031036,259.526215 371.031036,211.702011 
	C371.312836,211.684036 371.594666,211.666077 371.876465,211.648117 
	C379.336182,259.737457 386.795898,307.826782 394.227753,355.736450 
	C404.084381,355.736450 412.904083,355.736450 421.846069,355.736450 
	C422.205444,354.007355 422.616241,352.397064 422.868622,350.762329 
	C427.488617,320.837677 432.099365,290.911621 436.690674,260.982574 
	C439.188202,244.702133 441.645874,228.415543 444.637238,212.757324 
	C444.751495,214.575348 444.962860,216.393250 444.965240,218.211411 
	C444.994110,239.990814 444.993744,261.770264 444.997528,283.549683 
	C445.001434,305.994080 444.956879,328.438751 445.095825,350.882294 
	C445.105957,352.519867 446.433319,354.149292 448.063416,355.865692 
M573.171265,260.689514 
	C571.743835,271.281647 570.316467,281.873779 568.889099,292.465912 
	C568.623779,292.477203 568.358521,292.488495 568.093201,292.499786 
	C561.166199,244.344223 554.239197,196.188660 547.268799,147.731323 
	C533.495605,147.731323 520.179749,147.957703 506.878662,147.614136 
	C501.917267,147.485977 500.388031,148.644348 500.404388,153.899963 
	C500.603394,217.879684 500.532074,281.860229 500.540436,345.840546 
	C500.540741,348.171722 500.384796,350.549500 500.799896,352.814270 
	C501.005981,353.938660 502.323944,355.712769 503.174896,355.733734 
	C511.923737,355.949432 520.679932,355.866028 529.880066,355.866028 
	C529.880066,306.931580 529.880066,258.694763 529.880066,210.457932 
	C530.190613,210.433777 530.501221,210.409622 530.811768,210.385468 
	C538.313416,258.828156 545.815125,307.270844 553.323547,355.757385 
	C562.805115,355.757385 571.778381,355.757385 581.177185,355.757385 
	C588.516052,308.424896 595.849365,261.128296 603.182617,213.831726 
	C603.772522,213.879776 604.362366,213.927826 604.952271,213.975876 
	C604.952271,261.142548 604.952271,308.309204 604.952271,355.665710 
	C615.716187,355.665710 625.642395,355.665710 635.867004,355.665710 
	C635.867004,286.294739 635.867004,217.131821 635.867004,148.229111 
	C620.111267,148.229111 604.740112,148.229111 589.344604,148.229111 
	C589.161194,150.547394 589.118530,152.377289 588.858643,154.175797 
	C585.639343,176.452286 582.412354,198.727722 579.136475,220.995972 
	C577.232483,233.938278 575.237000,246.867096 573.171265,260.689514 
M772.656128,355.872375 
	C781.422913,355.872375 790.189697,355.872375 799.551758,355.872375 
	C799.551758,325.942596 799.551758,296.555847 799.551758,266.851898 
	C804.456055,266.851898 808.779358,266.588959 813.059937,266.904663 
	C823.119263,267.646484 827.303406,271.421967 829.204712,281.267975 
	C829.765930,284.174225 830.097351,287.170807 830.114258,290.128418 
	C830.200989,305.290314 829.951599,320.456909 830.250122,335.613373 
	C830.363586,341.374146 831.442566,347.147095 832.515015,352.832703 
	C832.741699,354.034515 834.842468,355.724457 836.113647,355.754486 
	C846.258179,355.994202 856.410889,355.888275 865.346558,355.888275 
	C864.806091,344.056671 864.120056,332.521179 863.795227,320.975525 
	C863.453308,308.822662 863.905090,296.633850 863.194580,284.508514 
	C862.323181,269.637085 858.784302,255.860306 842.525696,249.481720 
	C854.181091,244.128479 860.344849,234.834915 861.649719,223.333755 
	C863.085999,210.673111 863.245789,197.752075 862.613953,185.011337 
	C862.161499,175.888565 858.999023,167.109665 852.282837,160.163193 
	C843.985596,151.581329 833.292053,148.582886 821.999695,148.073120 
	C808.030151,147.442474 794.015747,147.799881 780.020752,147.741196 
	C775.568481,147.722519 771.116089,147.738266 766.494263,147.738266 
	C766.494263,217.340866 766.494263,286.386292 766.494263,355.871979 
	C768.451294,355.871979 770.077271,355.871979 772.656128,355.872375 
M221.012085,195.529266 
	C221.034790,234.509216 220.817978,273.491547 221.205994,312.467865 
	C221.347870,326.717712 226.445511,339.296844 237.883621,348.684723 
	C245.658051,355.065674 254.919998,357.524353 264.570740,358.347626 
	C279.315613,359.605469 293.444916,357.533813 305.011963,347.249603 
	C315.495880,337.928436 319.648163,325.520569 319.932434,311.949036 
	C320.364960,291.300537 320.217712,270.638672 320.209259,249.982513 
	C320.201050,229.993210 320.587982,209.983505 319.819427,190.020584 
	C319.089020,171.049149 311.189880,155.873718 292.512909,148.492355 
	C282.093994,144.374664 271.142090,143.966415 260.078735,145.650528 
	C250.282516,147.141769 241.435745,150.604431 234.371536,157.751434 
	C224.299057,167.941956 220.948837,180.634552 221.012085,195.529266 
M51.662373,331.845001 
	C58.762932,331.650177 65.931328,330.767426 72.944473,331.458984 
	C79.611206,332.116364 85.934868,332.157440 91.630836,328.596344 
	C97.874557,324.692780 102.483253,319.245544 103.840111,311.726288 
	C104.046783,310.580933 103.000343,309.209442 102.533493,307.942566 
	C101.298309,308.725555 99.785973,309.281158 98.905121,310.354858 
	C98.006981,311.449646 97.844818,313.113770 97.161285,314.424835 
	C93.444160,321.554352 87.827805,326.424530 79.569794,326.408508 
	C71.564468,326.392975 63.561176,325.330231 55.300526,324.708099 
	C59.414837,313.411102 63.396271,301.518433 76.459244,297.259338 
	C81.808823,295.515198 88.117714,295.534973 92.546783,299.900818 
	C85.748596,302.902802 79.019447,305.713104 72.482376,308.915497 
	C71.359055,309.465790 71.053436,311.685211 70.370087,313.133575 
	C71.898804,313.331024 73.502289,313.906799 74.935997,313.623505 
	C76.485863,313.317200 77.873352,312.201050 79.338242,311.450989 
	C88.105194,306.962006 97.257690,304.201965 107.215988,304.902191 
	C107.894547,310.829315 108.219101,316.474731 109.233826,321.993225 
	C112.114311,337.658600 119.970573,349.720886 135.546097,355.228760 
	C145.176453,358.634216 155.105820,359.336853 165.439316,358.016663 
	C185.691193,355.429230 200.252518,342.131592 204.023529,322.207184 
	C209.562027,292.944275 201.456375,268.333649 179.670303,248.121094 
	C171.869263,240.883545 163.983154,233.727554 156.414429,226.252289 
	C146.502655,216.462906 139.494949,205.287415 141.004898,190.480270 
	C142.020691,180.519119 147.036819,175.675262 156.763336,175.467163 
	C166.111252,175.267166 171.162857,179.874344 172.217514,189.788376 
	C172.656342,193.913559 172.905441,198.071228 172.978668,202.218750 
	C173.029266,205.084595 173.958023,206.516037 177.044754,206.475647 
	C184.873672,206.373154 192.705841,206.375366 200.534637,206.484650 
	C203.311096,206.523392 204.491592,205.504807 204.374863,202.689819 
	C204.147186,197.198853 204.491608,191.651794 203.851334,186.216049 
	C201.425613,165.622375 190.930405,148.721069 167.835464,146.002045 
	C158.928146,144.953339 149.542816,145.467590 140.690170,147.041199 
	C127.662796,149.356888 118.384613,157.488617 112.795036,169.608902 
	C107.163040,181.821136 107.033142,194.748581 108.508896,207.677200 
	C108.884460,210.967407 107.912910,212.876892 106.415787,215.258789 
	C101.069794,223.764099 95.074387,231.985229 90.802673,241.013199 
	C84.103622,255.171173 82.582420,269.971741 90.053406,284.605225 
	C91.482689,287.404785 93.335625,289.988037 95.577164,293.616486 
	C91.689796,292.599426 88.894722,291.558807 86.011612,291.168579 
	C74.850220,289.657806 66.031036,293.928528 59.800312,303.050964 
	C53.940399,311.630493 48.222179,320.451324 51.662373,331.845001 
M742.354675,355.872284 
	C744.508850,355.872284 746.663025,355.872284 748.989929,355.872284 
	C748.989929,345.519043 748.989929,335.456604 748.989929,324.929504 
	C730.224792,324.929504 711.821106,324.929504 693.450806,324.929504 
	C693.450806,303.893738 693.450806,283.328186 693.450806,262.400879 
	C708.340088,262.400879 722.930054,262.400879 737.663208,262.400879 
	C737.663208,252.138382 737.663208,242.243362 737.663208,231.930084 
	C722.739929,231.930084 708.152832,231.930084 693.419556,231.930084 
	C693.419556,213.771866 693.419556,196.036942 693.419556,177.740631 
	C712.075623,177.740631 730.470398,177.740631 748.994263,177.740631 
	C748.994263,167.472504 748.994263,157.770218 748.994263,148.121826 
	C719.235474,148.121826 689.845154,148.121826 660.473633,148.121826 
	C660.473633,217.549026 660.473633,286.580536 660.473633,355.872650 
	C687.766296,355.872650 714.575806,355.872650 742.354675,355.872284 
M235.853394,379.546936 
	C234.585434,378.395630 233.292572,376.311371 232.056259,376.344360 
	C230.706436,376.380432 228.719177,378.131531 228.210373,379.562073 
	C226.209839,385.186829 224.681839,390.979614 222.574478,398.068878 
	C220.614914,390.963135 218.903015,385.403381 217.586227,379.751526 
	C216.716675,376.019226 214.895157,375.289795 211.399246,376.889832 
	C214.291809,386.864014 217.148590,396.714844 220.063904,406.767487 
	C221.677017,406.767487 223.288086,406.767487 225.082382,406.767487 
	C227.219833,399.694061 229.330582,392.709045 231.441315,385.724030 
	C231.799561,385.733032 232.157791,385.742035 232.516037,385.751038 
	C234.554749,392.656433 236.593445,399.561798 238.706100,406.717621 
	C240.348358,406.717621 242.093628,406.717621 243.784149,406.717621 
	C245.265182,401.501160 246.634048,396.536011 248.088821,391.596191 
	C249.555389,386.616241 251.107269,381.661438 252.598907,376.770569 
	C248.241287,375.176971 246.842239,376.816284 246.094437,379.907166 
	C244.764252,385.405121 243.235779,390.855133 241.790253,396.325195 
	C241.417221,396.336945 241.044205,396.348724 240.671173,396.360474 
	C239.110336,391.022400 237.549484,385.684296 235.853394,379.546936 
M390.914032,390.005249 
	C389.059326,391.636200 387.204620,393.267181 385.266937,394.971100 
	C383.973419,393.542084 382.662354,392.093658 381.345917,390.639343 
	C386.776428,386.043427 387.991730,382.361084 385.454102,378.676666 
	C383.309021,375.562225 376.988617,374.788879 373.186340,377.175720 
	C369.371368,379.570557 369.160767,383.041443 372.416534,389.861053 
	C366.765533,394.763977 365.507996,399.718475 368.771698,404.220978 
	C372.098816,408.810974 378.856659,408.636780 385.501465,404.370209 
	C388.954987,405.578278 391.765839,406.561554 394.576691,407.544830 
	C394.863129,407.059357 395.149597,406.573883 395.436035,406.088409 
	C393.438446,403.804840 391.440887,401.521240 389.316162,399.092255 
	C390.642609,397.058716 392.053040,395.015747 393.334717,392.894928 
	C394.420258,391.098785 394.485077,389.696777 390.914032,390.005249 
M304.501343,376.114624 
	C302.014709,375.800018 300.930176,376.665009 301.010132,379.392548 
	C301.187103,385.432404 301.065216,391.481018 301.065216,398.955963 
	C296.244415,391.805359 292.065186,386.068817 288.410095,380.015747 
	C286.127014,376.234741 283.524628,375.055420 279.539124,376.755768 
	C279.539124,386.806946 279.539124,396.708252 279.539124,406.666138 
	C281.296234,406.666138 282.702972,406.666138 284.758728,406.666138 
	C284.758728,399.539825 284.758728,392.716644 284.758728,385.893494 
	C289.902161,391.607941 294.127686,397.480072 297.984070,403.585388 
	C299.979279,406.744141 302.294556,407.738312 305.403290,406.704834 
	C305.403290,396.370911 305.403290,386.307556 304.501343,376.114624 
M602.767822,376.076721 
	C601.284424,376.910522 598.541504,377.701569 598.511536,378.584656 
	C598.197449,387.845093 598.317566,397.120331 598.317566,406.701630 
	C603.536560,406.701630 608.229675,407.282410 612.719849,406.574921 
	C620.864075,405.291656 625.900391,398.257996 625.352661,390.055359 
	C624.797363,381.738037 619.477234,376.654541 610.684814,376.138672 
	C608.362854,376.002441 606.027710,376.091553 602.767822,376.076721 
M543.085205,395.472626 
	C543.085205,399.099884 543.085205,402.727142 543.085205,406.655090 
	C544.919189,406.655090 546.294922,406.655090 548.269531,406.655090 
	C548.269531,399.229919 548.269531,391.934631 548.269531,383.550995 
	C553.085938,390.746918 557.502991,396.725494 561.203796,403.118713 
	C563.272217,406.692017 565.693359,407.548523 569.592102,406.617096 
	C569.592102,396.607605 569.592102,386.552826 569.592102,376.579224 
	C566.030762,375.325409 564.797791,376.461548 564.899170,379.915680 
	C565.072205,385.808624 564.946899,391.710388 564.946899,397.608429 
	C560.108215,392.054749 556.051941,386.297943 552.345947,380.323792 
	C550.175415,376.824890 547.766479,374.850220 543.085205,376.849915 
	C543.085205,382.582062 543.085205,388.532196 543.085205,395.472626 
M752.081665,403.581238 
	C752.616760,400.635864 754.271667,399.410034 757.329346,399.793030 
	C759.293457,400.039032 761.335876,400.028229 763.303101,399.794708 
	C766.272461,399.442139 767.996338,400.465515 768.703552,403.441559 
	C769.538513,406.955139 771.887756,407.705780 775.762695,406.361542 
	C771.481384,396.298798 767.235229,386.318787 763.080078,376.552521 
	C759.554565,375.219238 757.923950,376.763947 756.731567,379.606995 
	C753.922363,386.304962 750.946167,392.932739 748.066040,399.601227 
	C747.126221,401.777435 746.274475,403.991730 745.382446,406.188599 
	C745.852112,406.690277 746.321777,407.191986 746.791443,407.693695 
	C748.464661,406.579498 750.137939,405.465302 752.081665,403.581238 
M168.152237,400.037628 
	C171.476395,399.971497 174.813492,400.062164 178.120575,399.789124 
	C180.718994,399.574585 182.154648,400.467804 182.738770,402.999481 
	C183.636703,406.891296 185.991684,407.931274 189.967850,406.281708 
	C185.903290,396.711304 181.964310,387.225586 177.826126,377.827515 
	C176.655502,375.168976 173.110504,375.367828 171.769653,378.165131 
	C169.702606,382.477325 167.935883,386.932831 166.010635,391.313873 
	C163.848602,396.233795 161.651978,401.138519 159.418915,406.165771 
	C166.155746,408.821320 166.014801,403.703217 168.152237,400.037628 
M497.167145,385.597565 
	C494.244812,392.468750 491.322479,399.339905 488.408539,406.191345 
	C492.332977,407.867889 494.426056,406.807434 495.247070,403.385132 
	C495.957367,400.424469 497.766602,399.453735 500.702209,399.792145 
	C502.673492,400.019409 504.712189,400.013550 506.684845,399.792389 
	C509.458130,399.481476 511.223663,400.424561 511.779358,403.196716 
	C512.571106,407.146301 514.924438,407.702026 518.883667,406.245605 
	C514.786987,396.647522 510.871429,387.169861 506.670990,377.820221 
	C505.433044,375.064758 502.134583,375.400146 500.707062,378.200439 
	C499.581787,380.407867 498.584503,382.680542 497.167145,385.597565 
M662.206604,375.665070 
	C660.551270,375.774078 658.842224,375.657684 657.251282,376.036835 
	C653.377075,376.960052 650.584106,379.283417 650.190735,383.412262 
	C649.813843,387.368408 651.557373,390.561432 655.100891,392.480042 
	C656.689819,393.340363 658.555176,393.673035 660.222046,394.410370 
	C662.498230,395.417206 666.122742,395.756805 664.463318,399.611572 
	C662.910461,403.218933 659.767151,403.433258 656.452393,402.000000 
	C655.708252,401.678284 655.079956,400.660065 654.414795,400.675354 
	C653.097839,400.705719 651.792358,401.233429 650.482178,401.555542 
	C650.828918,402.834808 650.795776,404.836304 651.594482,405.256378 
	C653.887756,406.462463 656.466003,407.435120 659.026062,407.759308 
	C663.946777,408.382477 668.852478,404.726013 669.868652,400.182648 
	C671.062134,394.846008 669.171936,391.795410 663.368774,389.633575 
	C661.659790,388.996918 659.762756,388.580505 658.346924,387.530548 
	C657.194397,386.675842 655.862854,384.921356 656.020874,383.757324 
	C656.182983,382.563690 658.017517,380.771606 659.191895,380.714294 
	C661.571655,380.598145 663.999939,381.476746 667.109985,382.081726 
	C667.620117,381.500946 668.654358,380.323578 670.488831,378.235107 
	C667.406738,377.207611 665.197571,376.471100 662.206604,375.665070 
M708.793274,375.715485 
	C700.869324,376.637909 696.089050,380.643219 694.354004,387.813934 
	C692.933716,393.683960 695.783447,401.083801 700.915833,404.852814 
	C706.050354,408.623444 712.978455,408.914185 718.042175,405.214600 
	C719.329895,404.273773 721.007385,401.738068 720.594543,400.990021 
	C719.261475,398.574585 717.221130,399.507019 715.183716,400.880585 
	C710.582214,403.982697 705.183350,403.047394 701.974121,398.863983 
	C698.302734,394.078094 698.826111,386.796661 703.114685,382.995789 
	C707.451904,379.151825 712.074280,379.319641 717.247070,383.946289 
	C718.312622,382.671173 720.155823,381.421783 720.187866,380.127502 
	C720.213989,379.074097 718.241577,377.484894 716.851196,376.992615 
	C714.562805,376.182434 712.028442,376.067017 708.793274,375.715485 
M868.024292,377.600525 
	C867.473083,377.113708 866.929016,376.213409 866.369568,376.203735 
	C860.427612,376.101166 854.483154,376.140106 848.419434,376.140106 
	C848.419434,386.666046 848.419434,396.698578 848.419434,406.722412 
	C855.402649,406.722412 862.003845,406.722412 868.927490,406.722412 
	C868.840271,405.075897 868.767517,403.702698 868.680969,402.069397 
	C865.816528,402.069397 863.338806,402.069397 860.861084,402.069397 
	C858.410095,402.069397 855.959106,402.069397 853.338867,402.069397 
	C853.338867,399.014160 853.338867,396.435699 853.338867,393.701630 
	C856.392700,393.701630 859.204529,393.708893 862.016357,393.700073 
	C867.076111,393.684174 867.076111,393.680145 866.408203,388.680176 
	C862.073669,388.680176 857.667542,388.680176 853.456665,388.680176 
	C853.456665,385.773285 853.456665,383.369537 853.456665,380.917908 
	C857.481689,380.917908 861.158875,381.105347 864.796326,380.807495 
	C865.937134,380.714081 866.971069,379.314972 868.024292,377.600525 
M812.284607,393.920959 
	C819.368835,393.260376 822.354736,390.647491 822.500488,384.981201 
	C822.627869,380.029480 819.683533,376.723328 814.297180,376.233307 
	C811.001099,375.933472 807.621155,375.823120 804.362305,376.255707 
	C803.270447,376.400665 801.651855,378.462921 801.612244,379.692017 
	C801.360535,387.489471 801.506348,395.299133 801.473938,403.104584 
	C801.458557,406.809021 803.169128,407.725891 806.937866,406.299957 
	C806.937866,402.295502 806.937866,398.224426 806.937866,393.926941 
	C808.749695,393.926941 810.055664,393.926941 812.284607,393.920959 
M451.471863,381.768494 
	C451.471863,379.992676 451.471863,378.216858 451.471863,376.073334 
	C449.439606,376.216522 448.023590,376.316254 446.476318,376.425262 
	C446.476318,386.628754 446.476318,396.515320 446.476318,406.692749 
	C452.671783,406.692749 458.577271,406.692749 464.780212,406.692749 
	C464.780212,405.241760 464.780212,403.865143 464.780212,402.024231 
	C460.323242,402.024231 456.071533,402.024231 451.471619,402.024231 
	C451.471619,395.277679 451.471619,388.990997 451.471863,381.768494 
M121.769981,377.100098 
	C120.370346,376.747894 118.970718,376.395660 117.447662,376.012390 
	C117.447662,386.767273 117.447662,396.783142 117.447662,406.793823 
	C123.515579,406.793823 129.124283,406.793823 134.998215,406.793823 
	C134.998215,405.206299 134.998215,403.802856 134.998215,401.898132 
	C130.513626,401.898132 126.293991,401.898132 121.885811,401.898132 
	C121.885811,393.598633 121.885811,385.799103 121.769981,377.100098 
z"/>
<path fill="#F1F1F1" opacity="1.000000" stroke="none" 
	d="
M573.227051,260.245758 
	C575.237000,246.867096 577.232483,233.938278 579.136475,220.995972 
	C582.412354,198.727722 585.639343,176.452286 588.858643,154.175797 
	C589.118530,152.377289 589.161194,150.547394 589.344604,148.229111 
	C604.740112,148.229111 620.111267,148.229111 635.867004,148.229111 
	C635.867004,217.131821 635.867004,286.294739 635.867004,355.665710 
	C625.642395,355.665710 615.716187,355.665710 604.952271,355.665710 
	C604.952271,308.309204 604.952271,261.142548 604.952271,213.975876 
	C604.362366,213.927826 603.772522,213.879776 603.182617,213.831726 
	C595.849365,261.128296 588.516052,308.424896 581.177185,355.757385 
	C571.778381,355.757385 562.805115,355.757385 553.323547,355.757385 
	C545.815125,307.270844 538.313416,258.828156 530.811768,210.385468 
	C530.501221,210.409622 530.190613,210.433777 529.880066,210.457932 
	C529.880066,258.694763 529.880066,306.931580 529.880066,355.866028 
	C520.679932,355.866028 511.923737,355.949432 503.174896,355.733734 
	C502.323944,355.712769 501.005981,353.938660 500.799896,352.814270 
	C500.384796,350.549500 500.540741,348.171722 500.540436,345.840546 
	C500.532074,281.860229 500.603394,217.879684 500.404388,153.899963 
	C500.388031,148.644348 501.917267,147.485977 506.878662,147.614136 
	C520.179749,147.957703 533.495605,147.731323 547.268799,147.731323 
	C554.239197,196.188660 561.166199,244.344223 568.093201,292.499786 
	C568.358521,292.488495 568.623779,292.477203 568.889099,292.465912 
	C570.316467,281.873779 571.743835,271.281647 573.227051,260.245758 
M604.640808,206.390823 
	C604.488098,207.101807 604.335388,207.812775 604.182678,208.523758 
	C604.382324,208.557281 604.581970,208.590805 604.781555,208.624344 
	C604.846069,208.056061 604.910583,207.487778 604.640808,206.390823 
z"/>
<path fill="#F1F1F1" opacity="1.000000" stroke="none" 
	d="
M444.121490,212.131729 
	C441.645874,228.415543 439.188202,244.702133 436.690674,260.982574 
	C432.099365,290.911621 427.488617,320.837677 422.868622,350.762329 
	C422.616241,352.397064 422.205444,354.007355 421.846069,355.736450 
	C412.904083,355.736450 404.084381,355.736450 394.227753,355.736450 
	C386.795898,307.826782 379.336182,259.737457 371.876465,211.648117 
	C371.594666,211.666077 371.312836,211.684036 371.031036,211.702011 
	C371.031036,259.526215 371.031036,307.350403 371.031036,355.523621 
	C360.993042,355.523621 351.439758,355.523621 341.562012,355.523621 
	C341.562012,286.517059 341.562012,217.607040 341.562012,148.214417 
	C356.909973,148.214417 372.286835,148.214417 388.187683,148.214417 
	C395.067352,195.921646 401.967499,243.771179 408.867676,291.620697 
	C409.178497,291.622009 409.489319,291.623291 409.800140,291.624603 
	C416.648102,243.969925 423.496033,196.315262 430.411072,148.193787 
	C445.713867,148.193787 461.119232,148.193787 476.882324,148.193787 
	C476.882324,217.075897 476.882324,286.144012 476.882324,355.865692 
	C467.265503,355.865692 457.664459,355.865692 447.590454,355.367737 
	C446.998749,352.714050 446.777313,350.558411 446.776398,348.402679 
	C446.756134,301.770813 446.763550,255.138962 446.747986,208.507095 
	C446.747406,206.778290 446.568298,205.049545 446.472412,203.320786 
	C446.011078,203.339294 445.549774,203.357803 445.088440,203.376297 
	C444.766113,206.294785 444.443817,209.213257 444.121490,212.131729 
z"/>
<path fill="#F2F2F2" opacity="1.000000" stroke="none" 
	d="
M772.179688,355.872192 
	C770.077271,355.871979 768.451294,355.871979 766.494263,355.871979 
	C766.494263,286.386292 766.494263,217.340866 766.494263,147.738266 
	C771.116089,147.738266 775.568481,147.722519 780.020752,147.741196 
	C794.015747,147.799881 808.030151,147.442474 821.999695,148.073120 
	C833.292053,148.582886 843.985596,151.581329 852.282837,160.163193 
	C858.999023,167.109665 862.161499,175.888565 862.613953,185.011337 
	C863.245789,197.752075 863.085999,210.673111 861.649719,223.333755 
	C860.344849,234.834915 854.181091,244.128479 842.525696,249.481720 
	C858.784302,255.860306 862.323181,269.637085 863.194580,284.508514 
	C863.905090,296.633850 863.453308,308.822662 863.795227,320.975525 
	C864.120056,332.521179 864.806091,344.056671 865.346558,355.888275 
	C856.410889,355.888275 846.258179,355.994202 836.113647,355.754486 
	C834.842468,355.724457 832.741699,354.034515 832.515015,352.832703 
	C831.442566,347.147095 830.363586,341.374146 830.250122,335.613373 
	C829.951599,320.456909 830.200989,305.290314 830.114258,290.128418 
	C830.097351,287.170807 829.765930,284.174225 829.204712,281.267975 
	C827.303406,271.421967 823.119263,267.646484 813.059937,266.904663 
	C808.779358,266.588959 804.456055,266.851898 799.551758,266.851898 
	C799.551758,296.555847 799.551758,325.942596 799.551758,355.872375 
	C790.189697,355.872375 781.422913,355.872375 772.179688,355.872192 
M829.076477,189.835770 
	C826.314087,178.286621 817.985535,176.612427 799.796021,178.487961 
	C799.796021,197.685333 799.796021,216.882690 799.796021,236.154724 
	C804.776978,236.154724 809.424561,236.388306 814.040405,236.104645 
	C822.836487,235.564072 828.210510,231.254868 828.905090,222.380417 
	C829.727417,211.872665 829.111633,201.252350 829.076477,189.835770 
z"/>
<path fill="#F2F2F2" opacity="1.000000" stroke="none" 
	d="
M221.027313,195.035904 
	C220.948837,180.634552 224.299057,167.941956 234.371536,157.751434 
	C241.435745,150.604431 250.282516,147.141769 260.078735,145.650528 
	C271.142090,143.966415 282.093994,144.374664 292.512909,148.492355 
	C311.189880,155.873718 319.089020,171.049149 319.819427,190.020584 
	C320.587982,209.983505 320.201050,229.993210 320.209259,249.982513 
	C320.217712,270.638672 320.364960,291.300537 319.932434,311.949036 
	C319.648163,325.520569 315.495880,337.928436 305.011963,347.249603 
	C293.444916,357.533813 279.315613,359.605469 264.570740,358.347626 
	C254.919998,357.524353 245.658051,355.065674 237.883621,348.684723 
	C226.445511,339.296844 221.347870,326.717712 221.205994,312.467865 
	C220.817978,273.491547 221.034790,234.509216 221.027313,195.035904 
M287.089386,236.500000 
	C287.091614,231.500549 287.188477,226.498978 287.076874,221.502075 
	C286.824280,210.192719 286.680054,198.874222 286.068909,187.582321 
	C285.747681,181.647186 280.959900,176.828445 275.532715,175.854050 
	C262.643646,173.539932 255.388580,179.072906 254.284042,192.101059 
	C254.129456,193.924377 254.116379,195.763611 254.115875,197.595505 
	C254.106094,233.424622 254.078430,269.253784 254.150421,305.082764 
	C254.158081,308.894104 254.451431,312.762848 255.155518,316.502686 
	C256.600800,324.179749 262.836945,328.332336 271.919403,328.079498 
	C279.438232,327.870178 284.983276,323.246399 286.060211,315.909729 
	C286.662140,311.809113 287.016235,307.635010 287.034424,303.492035 
	C287.131012,281.495026 287.085815,259.497406 287.089386,236.500000 
z"/>
<path fill="#EEEEEE" opacity="1.000000" stroke="none" 
	d="
M51.212116,331.803894 
	C48.222179,320.451324 53.940399,311.630493 59.800312,303.050964 
	C66.031036,293.928528 74.850220,289.657806 86.011612,291.168579 
	C88.894722,291.558807 91.689796,292.599426 95.577164,293.616486 
	C93.335625,289.988037 91.482689,287.404785 90.053406,284.605225 
	C82.582420,269.971741 84.103622,255.171173 90.802673,241.013199 
	C95.074387,231.985229 101.069794,223.764099 106.415787,215.258789 
	C107.912910,212.876892 108.884460,210.967407 108.508896,207.677200 
	C107.033142,194.748581 107.163040,181.821136 112.795036,169.608902 
	C118.384613,157.488617 127.662796,149.356888 140.690170,147.041199 
	C149.542816,145.467590 158.928146,144.953339 167.835464,146.002045 
	C190.930405,148.721069 201.425613,165.622375 203.851334,186.216049 
	C204.491608,191.651794 204.147186,197.198853 204.374863,202.689819 
	C204.491592,205.504807 203.311096,206.523392 200.534637,206.484650 
	C192.705841,206.375366 184.873672,206.373154 177.044754,206.475647 
	C173.958023,206.516037 173.029266,205.084595 172.978668,202.218750 
	C172.905441,198.071228 172.656342,193.913559 172.217514,189.788376 
	C171.162857,179.874344 166.111252,175.267166 156.763336,175.467163 
	C147.036819,175.675262 142.020691,180.519119 141.004898,190.480270 
	C139.494949,205.287415 146.502655,216.462906 156.414429,226.252289 
	C163.983154,233.727554 171.869263,240.883545 179.670303,248.121094 
	C201.456375,268.333649 209.562027,292.944275 204.023529,322.207184 
	C200.252518,342.131592 185.691193,355.429230 165.439316,358.016663 
	C155.105820,359.336853 145.176453,358.634216 135.546097,355.228760 
	C119.970573,349.720886 112.114311,337.658600 109.233826,321.993225 
	C108.219101,316.474731 107.894547,310.829315 107.215988,304.902191 
	C97.257690,304.201965 88.105194,306.962006 79.338242,311.450989 
	C77.873352,312.201050 76.485863,313.317200 74.935997,313.623505 
	C73.502289,313.906799 71.898804,313.331024 70.370087,313.133606 
	C71.053436,311.685211 71.359055,309.465790 72.482376,308.915497 
	C79.019447,305.713104 85.748596,302.902802 92.546783,299.900818 
	C88.117714,295.534973 81.808823,295.515198 76.459244,297.259338 
	C63.396271,301.518433 59.414837,313.411102 55.300526,324.708099 
	C63.561176,325.330231 71.564468,326.392975 79.569794,326.408508 
	C87.827805,326.424530 93.444160,321.554352 97.161285,314.424835 
	C97.844818,313.113770 98.006981,311.449646 98.905121,310.354858 
	C99.785973,309.281158 101.298309,308.725555 102.533493,307.942566 
	C103.000343,309.209442 104.046783,310.580933 103.840111,311.726288 
	C102.483253,319.245544 97.874557,324.692780 91.630836,328.596344 
	C85.934868,332.157440 79.611206,332.116364 72.944473,331.458984 
	C65.931328,330.767426 58.762932,331.650177 51.212116,331.803894 
M155.046783,274.874084 
	C153.549194,285.390991 148.256775,293.872192 140.671051,300.991516 
	C139.747360,301.858429 137.673401,301.499725 136.132523,301.709045 
	C136.185608,299.965668 135.960983,298.148468 136.397202,296.506897 
	C136.654037,295.540375 138.030624,294.913025 138.783005,294.030334 
	C151.475433,279.139893 152.890961,263.908539 141.529526,248.286270 
	C133.083679,236.673065 124.215759,225.366837 115.300346,213.613419 
	C110.391792,220.938431 104.653419,228.900589 99.607109,237.279556 
	C96.984596,241.634033 95.259590,246.620193 93.688454,251.501038 
	C86.643578,273.386261 98.038666,294.607513 120.028358,300.738037 
	C120.292511,300.694611 120.556671,300.651184 120.820831,300.607758 
	C120.602310,300.350006 120.383797,300.092255 120.236000,299.085938 
	C119.444450,297.084503 118.779869,295.021210 117.839981,293.092041 
	C113.064827,283.290802 113.441833,271.127899 103.960472,263.417236 
	C102.038811,261.854431 99.103790,258.886505 102.043892,256.332245 
	C105.048538,253.721863 106.929420,257.319366 108.888687,259.189758 
	C109.064140,259.357239 109.469818,259.283569 109.673027,259.309631 
	C110.140511,252.860092 110.524826,246.414352 111.143745,239.991241 
	C111.266365,238.718674 111.971893,236.997971 112.959579,236.410980 
	C115.554710,234.868652 117.505302,236.781845 117.162949,240.745621 
	C116.232796,251.515030 115.420158,262.257690 118.502548,272.961670 
	C121.586494,268.871277 124.360764,264.562622 127.818764,260.899445 
	C129.304413,259.325623 133.395554,257.746857 134.248734,258.499390 
	C136.882034,260.821991 134.189850,262.903870 132.639511,265.090179 
	C129.198212,269.943207 125.828720,274.905121 123.079521,280.162323 
	C121.983955,282.257355 121.736946,285.587524 122.588516,287.778259 
	C127.364296,300.064331 133.820190,311.389984 141.984665,321.867554 
	C148.902023,330.744690 167.981201,331.094330 171.863693,316.995148 
	C171.971512,316.001038 172.079330,315.006897 172.141281,313.235352 
	C172.187149,312.198883 172.233017,311.162415 172.932709,309.897247 
	C172.709732,307.890961 172.486755,305.884644 172.185944,303.101868 
	C172.179077,302.061951 172.172211,301.022003 172.688187,299.536591 
	C171.545578,296.649445 170.402969,293.762299 169.036026,290.279388 
	C168.702713,289.503998 168.369385,288.728607 168.164291,287.238403 
	C167.132675,285.810272 166.101059,284.382172 164.598099,282.598297 
	C164.117493,281.975372 163.636887,281.352448 163.237976,280.054474 
	C162.243668,278.987183 161.249359,277.919891 159.726578,276.508392 
	C158.863998,275.589661 158.001434,274.670898 157.110641,273.046448 
	C156.617783,272.730255 156.124924,272.414062 155.632080,272.097870 
	C155.442108,272.756897 155.252151,273.415955 155.046783,274.874084 
z"/>
<path fill="#F2F2F2" opacity="1.000000" stroke="none" 
	d="
M741.869995,355.872467 
	C714.575806,355.872650 687.766296,355.872650 660.473633,355.872650 
	C660.473633,286.580536 660.473633,217.549026 660.473633,148.121826 
	C689.845154,148.121826 719.235474,148.121826 748.994263,148.121826 
	C748.994263,157.770218 748.994263,167.472504 748.994263,177.740631 
	C730.470398,177.740631 712.075623,177.740631 693.419556,177.740631 
	C693.419556,196.036942 693.419556,213.771866 693.419556,231.930084 
	C708.152832,231.930084 722.739929,231.930084 737.663208,231.930084 
	C737.663208,242.243362 737.663208,252.138382 737.663208,262.400879 
	C722.930054,262.400879 708.340088,262.400879 693.450806,262.400879 
	C693.450806,283.328186 693.450806,303.893738 693.450806,324.929504 
	C711.821106,324.929504 730.224792,324.929504 748.989929,324.929504 
	C748.989929,335.456604 748.989929,345.519043 748.989929,355.872284 
	C746.663025,355.872284 744.508850,355.872284 741.869995,355.872467 
z"/>
<path fill="#D6D6D6" opacity="1.000000" stroke="none" 
	d="
M235.921021,379.946594 
	C237.549484,385.684296 239.110336,391.022400 240.671173,396.360474 
	C241.044205,396.348724 241.417221,396.336945 241.790253,396.325195 
	C243.235779,390.855133 244.764252,385.405121 246.094437,379.907166 
	C246.842239,376.816284 248.241287,375.176971 252.598907,376.770569 
	C251.107269,381.661438 249.555389,386.616241 248.088821,391.596191 
	C246.634048,396.536011 245.265182,401.501160 243.784149,406.717621 
	C242.093628,406.717621 240.348358,406.717621 238.706100,406.717621 
	C236.593445,399.561798 234.554749,392.656433 232.516037,385.751038 
	C232.157791,385.742035 231.799561,385.733032 231.441315,385.724030 
	C229.330582,392.709045 227.219833,399.694061 225.082382,406.767487 
	C223.288086,406.767487 221.677017,406.767487 220.063904,406.767487 
	C217.148590,396.714844 214.291809,386.864014 211.399246,376.889832 
	C214.895157,375.289795 216.716675,376.019226 217.586227,379.751526 
	C218.903015,385.403381 220.614914,390.963135 222.574478,398.068878 
	C224.681839,390.979614 226.209839,385.186829 228.210373,379.562073 
	C228.719177,378.131531 230.706436,376.380432 232.056259,376.344360 
	C233.292572,376.311371 234.585434,378.395630 235.921021,379.946594 
z"/>
<path fill="#D4D4D4" opacity="1.000000" stroke="none" 
	d="
M391.311890,389.976929 
	C394.485077,389.696777 394.420258,391.098785 393.334717,392.894928 
	C392.053040,395.015747 390.642609,397.058716 389.316162,399.092255 
	C391.440887,401.521240 393.438446,403.804840 395.436035,406.088409 
	C395.149597,406.573883 394.863129,407.059357 394.576691,407.544830 
	C391.765839,406.561554 388.954987,405.578278 385.501465,404.370209 
	C378.856659,408.636780 372.098816,408.810974 368.771698,404.220978 
	C365.507996,399.718475 366.765533,394.763977 372.416534,389.861053 
	C369.160767,383.041443 369.371368,379.570557 373.186340,377.175720 
	C376.988617,374.788879 383.309021,375.562225 385.454102,378.676666 
	C387.991730,382.361084 386.776428,386.043427 381.345917,390.639343 
	C382.662354,392.093658 383.973419,393.542084 385.266937,394.971100 
	C387.204620,393.267181 389.059326,391.636200 391.311890,389.976929 
M372.076233,398.391052 
	C374.825562,404.288116 378.294556,404.705231 382.174713,400.123199 
	C380.248047,397.873627 378.351410,395.659088 375.969116,392.877533 
	C374.645416,394.505463 373.380707,396.060852 372.076233,398.391052 
M380.878540,384.835785 
	C380.506317,383.317657 380.134094,381.799561 379.761871,380.281433 
	C378.344147,380.803650 376.184631,380.967865 375.712311,381.946411 
	C375.215942,382.974792 376.113220,384.923431 376.895325,386.156769 
	C377.105530,386.488190 379.113403,385.679596 380.878540,384.835785 
z"/>
<path fill="#D7D7D7" opacity="1.000000" stroke="none" 
	d="
M304.952332,376.179382 
	C305.403290,386.307556 305.403290,396.370911 305.403290,406.704834 
	C302.294556,407.738312 299.979279,406.744141 297.984070,403.585388 
	C294.127686,397.480072 289.902161,391.607941 284.758728,385.893494 
	C284.758728,392.716644 284.758728,399.539825 284.758728,406.666138 
	C282.702972,406.666138 281.296234,406.666138 279.539124,406.666138 
	C279.539124,396.708252 279.539124,386.806946 279.539124,376.755768 
	C283.524628,375.055420 286.127014,376.234741 288.410095,380.015747 
	C292.065186,386.068817 296.244415,391.805359 301.065216,398.955963 
	C301.065216,391.481018 301.187103,385.432404 301.010132,379.392548 
	C300.930176,376.665009 302.014709,375.800018 304.952332,376.179382 
z"/>
<path fill="#CFCFCF" opacity="1.000000" stroke="none" 
	d="
M603.233215,376.076965 
	C606.027710,376.091553 608.362854,376.002441 610.684814,376.138672 
	C619.477234,376.654541 624.797363,381.738037 625.352661,390.055359 
	C625.900391,398.257996 620.864075,405.291656 612.719849,406.574921 
	C608.229675,407.282410 603.536560,406.701630 598.317566,406.701630 
	C598.317566,397.120331 598.197449,387.845093 598.511536,378.584656 
	C598.541504,377.701569 601.284424,376.910522 603.233215,376.076965 
M617.845764,384.794403 
	C614.005066,380.122437 608.996521,380.562103 603.950500,381.301727 
	C603.950500,388.325165 603.950500,395.049164 603.950500,401.736145 
	C617.506470,402.855377 623.257202,396.179504 617.845764,384.794403 
z"/>
<path fill="#D7D7D7" opacity="1.000000" stroke="none" 
	d="
M543.085205,394.977478 
	C543.085205,388.532196 543.085205,382.582062 543.085205,376.849915 
	C547.766479,374.850220 550.175415,376.824890 552.345947,380.323792 
	C556.051941,386.297943 560.108215,392.054749 564.946899,397.608429 
	C564.946899,391.710388 565.072205,385.808624 564.899170,379.915680 
	C564.797791,376.461548 566.030762,375.325409 569.592102,376.579224 
	C569.592102,386.552826 569.592102,396.607605 569.592102,406.617096 
	C565.693359,407.548523 563.272217,406.692017 561.203796,403.118713 
	C557.502991,396.725494 553.085938,390.746918 548.269531,383.550995 
	C548.269531,391.934631 548.269531,399.229919 548.269531,406.655090 
	C546.294922,406.655090 544.919189,406.655090 543.085205,406.655090 
	C543.085205,402.727142 543.085205,399.099884 543.085205,394.977478 
z"/>
<path fill="#D6D6D6" opacity="1.000000" stroke="none" 
	d="
M751.946411,403.966187 
	C750.137939,405.465302 748.464661,406.579498 746.791443,407.693695 
	C746.321777,407.191986 745.852112,406.690277 745.382446,406.188599 
	C746.274475,403.991730 747.126221,401.777435 748.066040,399.601227 
	C750.946167,392.932739 753.922363,386.304962 756.731567,379.606995 
	C757.923950,376.763947 759.554565,375.219238 763.080078,376.552521 
	C767.235229,386.318787 771.481384,396.298798 775.762695,406.361542 
	C771.887756,407.705780 769.538513,406.955139 768.703552,403.441559 
	C767.996338,400.465515 766.272461,399.442139 763.303101,399.794708 
	C761.335876,400.028229 759.293457,400.039032 757.329346,399.793030 
	C754.271667,399.410034 752.616760,400.635864 751.946411,403.966187 
M764.646729,393.183075 
	C763.321716,389.969666 761.996704,386.756256 760.469177,383.051727 
	C758.707336,387.237976 757.187561,390.849274 755.246460,395.461456 
	C759.114136,394.859985 762.010925,394.409485 764.646729,393.183075 
z"/>
<path fill="#D6D6D6" opacity="1.000000" stroke="none" 
	d="
M167.817963,400.318054 
	C166.014801,403.703217 166.155746,408.821320 159.418915,406.165771 
	C161.651978,401.138519 163.848602,396.233795 166.010635,391.313873 
	C167.935883,386.932831 169.702606,382.477325 171.769653,378.165131 
	C173.110504,375.367828 176.655502,375.168976 177.826126,377.827515 
	C181.964310,387.225586 185.903290,396.711304 189.967850,406.281708 
	C185.991684,407.931274 183.636703,406.891296 182.738770,402.999481 
	C182.154648,400.467804 180.718994,399.574585 178.120575,399.789124 
	C174.813492,400.062164 171.476395,399.971497 167.817963,400.318054 
M172.826553,394.976532 
	C174.874039,394.976532 176.921524,394.976532 179.528503,394.976532 
	C177.800125,390.765930 176.390808,387.332642 174.698608,383.210175 
	C173.093399,386.858398 171.726486,389.680206 170.671326,392.614105 
	C170.470856,393.171539 171.504791,394.172882 172.826553,394.976532 
z"/>
<path fill="#D7D7D7" opacity="1.000000" stroke="none" 
	d="
M497.348755,385.260925 
	C498.584503,382.680542 499.581787,380.407867 500.707062,378.200439 
	C502.134583,375.400146 505.433044,375.064758 506.670990,377.820221 
	C510.871429,387.169861 514.786987,396.647522 518.883667,406.245605 
	C514.924438,407.702026 512.571106,407.146301 511.779358,403.196716 
	C511.223663,400.424561 509.458130,399.481476 506.684845,399.792389 
	C504.712189,400.013550 502.673492,400.019409 500.702209,399.792145 
	C497.766602,399.453735 495.957367,400.424469 495.247070,403.385132 
	C494.426056,406.807434 492.332977,407.867889 488.408539,406.191345 
	C491.322479,399.339905 494.244812,392.468750 497.348755,385.260925 
M499.082855,393.941559 
	C502.006165,394.378204 504.929474,394.814880 508.696228,395.377563 
	C506.680389,390.608643 505.182800,387.065796 503.532440,383.161469 
	C502.003265,386.768555 500.651550,389.957062 499.082855,393.941559 
z"/>
<path fill="#D4D4D4" opacity="1.000000" stroke="none" 
	d="
M662.597534,375.699829 
	C665.197571,376.471100 667.406738,377.207611 670.488831,378.235107 
	C668.654358,380.323578 667.620117,381.500946 667.109985,382.081726 
	C663.999939,381.476746 661.571655,380.598145 659.191895,380.714294 
	C658.017517,380.771606 656.182983,382.563690 656.020874,383.757324 
	C655.862854,384.921356 657.194397,386.675842 658.346924,387.530548 
	C659.762756,388.580505 661.659790,388.996918 663.368774,389.633575 
	C669.171936,391.795410 671.062134,394.846008 669.868652,400.182648 
	C668.852478,404.726013 663.946777,408.382477 659.026062,407.759308 
	C656.466003,407.435120 653.887756,406.462463 651.594482,405.256378 
	C650.795776,404.836304 650.828918,402.834808 650.482178,401.555542 
	C651.792358,401.233429 653.097839,400.705719 654.414795,400.675354 
	C655.079956,400.660065 655.708252,401.678284 656.452393,402.000000 
	C659.767151,403.433258 662.910461,403.218933 664.463318,399.611572 
	C666.122742,395.756805 662.498230,395.417206 660.222046,394.410370 
	C658.555176,393.673035 656.689819,393.340363 655.100891,392.480042 
	C651.557373,390.561432 649.813843,387.368408 650.190735,383.412262 
	C650.584106,379.283417 653.377075,376.960052 657.251282,376.036835 
	C658.842224,375.657684 660.551270,375.774078 662.597534,375.699829 
z"/>
<path fill="#D1D1D1" opacity="1.000000" stroke="none" 
	d="
M709.195557,375.687103 
	C712.028442,376.067017 714.562805,376.182434 716.851196,376.992615 
	C718.241577,377.484894 720.213989,379.074097 720.187866,380.127502 
	C720.155823,381.421783 718.312622,382.671173 717.247070,383.946289 
	C712.074280,379.319641 707.451904,379.151825 703.114685,382.995789 
	C698.826111,386.796661 698.302734,394.078094 701.974121,398.863983 
	C705.183350,403.047394 710.582214,403.982697 715.183716,400.880585 
	C717.221130,399.507019 719.261475,398.574585 720.594543,400.990021 
	C721.007385,401.738068 719.329895,404.273773 718.042175,405.214600 
	C712.978455,408.914185 706.050354,408.623444 700.915833,404.852814 
	C695.783447,401.083801 692.933716,393.683960 694.354004,387.813934 
	C696.089050,380.643219 700.869324,376.637909 709.195557,375.687103 
z"/>
<path fill="#DBDBDB" opacity="1.000000" stroke="none" 
	d="
M868.039062,378.057007 
	C866.971069,379.314972 865.937134,380.714081 864.796326,380.807495 
	C861.158875,381.105347 857.481689,380.917908 853.456665,380.917908 
	C853.456665,383.369537 853.456665,385.773285 853.456665,388.680176 
	C857.667542,388.680176 862.073669,388.680176 866.408203,388.680176 
	C867.076111,393.680145 867.076111,393.684174 862.016357,393.700073 
	C859.204529,393.708893 856.392700,393.701630 853.338867,393.701630 
	C853.338867,396.435699 853.338867,399.014160 853.338867,402.069397 
	C855.959106,402.069397 858.410095,402.069397 860.861084,402.069397 
	C863.338806,402.069397 865.816528,402.069397 868.680969,402.069397 
	C868.767517,403.702698 868.840271,405.075897 868.927490,406.722412 
	C862.003845,406.722412 855.402649,406.722412 848.419434,406.722412 
	C848.419434,396.698578 848.419434,386.666046 848.419434,376.140106 
	C854.483154,376.140106 860.427612,376.101166 866.369568,376.203735 
	C866.929016,376.213409 867.473083,377.113708 868.039062,378.057007 
z"/>
<path fill="#D1D1D1" opacity="1.000000" stroke="none" 
	d="
M811.823120,393.923950 
	C810.055664,393.926941 808.749695,393.926941 806.937866,393.926941 
	C806.937866,398.224426 806.937866,402.295502 806.937866,406.299957 
	C803.169128,407.725891 801.458557,406.809021 801.473938,403.104584 
	C801.506348,395.299133 801.360535,387.489471 801.612244,379.692017 
	C801.651855,378.462921 803.270447,376.400665 804.362305,376.255707 
	C807.621155,375.823120 811.001099,375.933472 814.297180,376.233307 
	C819.683533,376.723328 822.627869,380.029480 822.500488,384.981201 
	C822.354736,390.647491 819.368835,393.260376 811.823120,393.923950 
M807.529785,380.969696 
	C807.230042,383.600494 806.930298,386.231293 806.605469,389.082733 
	C809.189636,389.082733 811.249634,389.642212 812.693848,388.938324 
	C814.421631,388.096252 815.623169,386.174408 817.052612,384.720276 
	C815.670593,383.453461 814.460999,381.843750 812.849487,381.033508 
	C811.661621,380.436279 809.948792,380.883179 807.529785,380.969696 
z"/>
<path fill="#848484" opacity="1.000000" stroke="none" 
	d="
M444.379364,212.444519 
	C444.443817,209.213257 444.766113,206.294785 445.088440,203.376297 
	C445.549774,203.357803 446.011078,203.339294 446.472412,203.320786 
	C446.568298,205.049545 446.747406,206.778290 446.747986,208.507095 
	C446.763550,255.138962 446.756134,301.770813 446.776398,348.402679 
	C446.777313,350.558411 446.998749,352.714050 447.132874,355.326111 
	C446.433319,354.149292 445.105957,352.519867 445.095825,350.882294 
	C444.956879,328.438751 445.001434,305.994080 444.997528,283.549683 
	C444.993744,261.770264 444.994110,239.990814 444.965240,218.211411 
	C444.962860,216.393250 444.751495,214.575348 444.379364,212.444519 
z"/>
<path fill="#D4D4D4" opacity="1.000000" stroke="none" 
	d="
M451.471741,382.236389 
	C451.471619,388.990997 451.471619,395.277679 451.471619,402.024231 
	C456.071533,402.024231 460.323242,402.024231 464.780212,402.024231 
	C464.780212,403.865143 464.780212,405.241760 464.780212,406.692749 
	C458.577271,406.692749 452.671783,406.692749 446.476318,406.692749 
	C446.476318,396.515320 446.476318,386.628754 446.476318,376.425262 
	C448.023590,376.316254 449.439606,376.216522 451.471863,376.073334 
	C451.471863,378.216858 451.471863,379.992676 451.471741,382.236389 
z"/>
<path fill="#D9D9D9" opacity="1.000000" stroke="none" 
	d="
M121.827896,377.549805 
	C121.885811,385.799103 121.885811,393.598633 121.885811,401.898132 
	C126.293991,401.898132 130.513626,401.898132 134.998215,401.898132 
	C134.998215,403.802856 134.998215,405.206299 134.998215,406.793823 
	C129.124283,406.793823 123.515579,406.793823 117.447662,406.793823 
	C117.447662,396.783142 117.447662,386.767273 117.447662,376.012390 
	C118.970718,376.395660 120.370346,376.747894 121.827896,377.549805 
z"/>
<path fill="#010101" opacity="1.000000" stroke="none" 
	d="
M604.807983,206.655151 
	C604.910583,207.487778 604.846069,208.056061 604.781555,208.624344 
	C604.581970,208.590805 604.382324,208.557281 604.182678,208.523758 
	C604.335388,207.812775 604.488098,207.101807 604.807983,206.655151 
z"/>
<path fill="#070707" opacity="1.000000" stroke="none" 
	d="
M829.097839,190.258301 
	C829.111633,201.252350 829.727417,211.872665 828.905090,222.380417 
	C828.210510,231.254868 822.836487,235.564072 814.040405,236.104645 
	C809.424561,236.388306 804.776978,236.154724 799.796021,236.154724 
	C799.796021,216.882690 799.796021,197.685333 799.796875,178.486984 
	C817.985535,176.612427 826.314087,178.286621 829.097839,190.258301 
z"/>
<path fill="#040404" opacity="1.000000" stroke="none" 
	d="
M287.089539,237.000000 
	C287.085815,259.497406 287.131012,281.495026 287.034424,303.492035 
	C287.016235,307.635010 286.662140,311.809113 286.060211,315.909729 
	C284.983276,323.246399 279.438232,327.870178 271.919403,328.079498 
	C262.836945,328.332336 256.600800,324.179749 255.155518,316.502686 
	C254.451431,312.762848 254.158081,308.894104 254.150421,305.082764 
	C254.078430,269.253784 254.106094,233.424622 254.115875,197.595505 
	C254.116379,195.763611 254.129456,193.924377 254.284042,192.101059 
	C255.388580,179.072906 262.643646,173.539932 275.532715,175.854050 
	C280.959900,176.828445 285.747681,181.647186 286.068909,187.582321 
	C286.680054,198.874222 286.824280,210.192719 287.076874,221.502075 
	C287.188477,226.498978 287.091614,231.500549 287.089539,237.000000 
z"/>
<path fill="#060606" opacity="1.000000" stroke="none" 
	d="
M172.165344,299.982086 
	C172.172211,301.022003 172.179077,302.061951 172.104553,303.925018 
	C172.108398,306.540771 172.193649,308.333344 172.278900,310.125946 
	C172.233017,311.162415 172.187149,312.198883 171.895950,313.850922 
	C171.524902,315.352325 171.399170,316.238190 171.273453,317.124023 
	C167.981201,331.094330 148.902023,330.744690 141.984665,321.867554 
	C133.820190,311.389984 127.364296,300.064331 122.588516,287.778259 
	C121.736946,285.587524 121.983955,282.257355 123.079521,280.162323 
	C125.828720,274.905121 129.198212,269.943207 132.639511,265.090179 
	C134.189850,262.903870 136.882034,260.821991 134.248734,258.499390 
	C133.395554,257.746857 129.304413,259.325623 127.818764,260.899445 
	C124.360764,264.562622 121.586494,268.871277 118.502548,272.961670 
	C115.420158,262.257690 116.232796,251.515030 117.162949,240.745621 
	C117.505302,236.781845 115.554710,234.868652 112.959579,236.410980 
	C111.971893,236.997971 111.266365,238.718674 111.143745,239.991241 
	C110.524826,246.414352 110.140511,252.860092 109.673027,259.309631 
	C109.469818,259.283569 109.064140,259.357239 108.888687,259.189758 
	C106.929420,257.319366 105.048538,253.721863 102.043892,256.332245 
	C99.103790,258.886505 102.038811,261.854431 103.960472,263.417236 
	C113.441833,271.127899 113.064827,283.290802 117.839981,293.092041 
	C118.779869,295.021210 119.444450,297.084503 120.085388,299.574646 
	C119.934769,300.063385 119.702232,300.290192 119.702232,300.290192 
	C98.038666,294.607513 86.643578,273.386261 93.688454,251.501038 
	C95.259590,246.620193 96.984596,241.634033 99.607109,237.279556 
	C104.653419,228.900589 110.391792,220.938431 115.300346,213.613419 
	C124.215759,225.366837 133.083679,236.673065 141.529526,248.286270 
	C152.890961,263.908539 151.475433,279.139893 138.783005,294.030334 
	C138.030624,294.913025 136.654037,295.540375 136.397202,296.506897 
	C135.960983,298.148468 136.185608,299.965668 136.132523,301.709045 
	C137.673401,301.499725 139.747360,301.858429 140.671051,300.991516 
	C148.256775,293.872192 153.549194,285.390991 155.385956,274.349701 
	C156.196381,273.800934 156.667618,273.776550 157.138855,273.752167 
	C158.001434,274.670898 158.863998,275.589661 159.993988,277.010132 
	C161.226364,278.584412 162.191330,279.656952 163.156281,280.729492 
	C163.636887,281.352448 164.117493,281.975372 164.810791,283.119019 
	C166.027679,285.077576 167.031876,286.515381 168.036072,287.953217 
	C168.369385,288.728607 168.702713,289.503998 169.096863,290.956177 
	C170.160248,294.415985 171.162796,297.199036 172.165344,299.982086 
z"/>
<path fill="#9B9B9B" opacity="1.000000" stroke="none" 
	d="
M172.426758,299.759338 
	C171.162796,297.199036 170.160248,294.415985 169.209045,291.254028 
	C170.402969,293.762299 171.545578,296.649445 172.426758,299.759338 
z"/>
<path fill="#9B9B9B" opacity="1.000000" stroke="none" 
	d="
M172.605804,310.011597 
	C172.193649,308.333344 172.108398,306.540771 172.143463,304.313263 
	C172.486755,305.884644 172.709732,307.890961 172.605804,310.011597 
z"/>
<path fill="#9B9B9B" opacity="1.000000" stroke="none" 
	d="
M168.100189,287.595825 
	C167.031876,286.515381 166.027679,285.077576 165.046463,283.296875 
	C166.101059,284.382172 167.132675,285.810272 168.100189,287.595825 
z"/>
<path fill="#9B9B9B" opacity="1.000000" stroke="none" 
	d="
M163.197128,280.391968 
	C162.191330,279.656952 161.226364,278.584412 160.258224,277.182251 
	C161.249359,277.919891 162.243668,278.987183 163.197128,280.391968 
z"/>
<path fill="#9B9B9B" opacity="1.000000" stroke="none" 
	d="
M171.568573,317.059570 
	C171.399170,316.238190 171.524902,315.352325 171.918884,314.239624 
	C172.079330,315.006897 171.971512,316.001038 171.568573,317.059570 
z"/>
<path fill="#9B9B9B" opacity="1.000000" stroke="none" 
	d="
M157.124756,273.399292 
	C156.667618,273.776550 156.196381,273.800934 155.393677,273.950134 
	C155.252151,273.415955 155.442108,272.756897 155.632080,272.097870 
	C156.124924,272.414062 156.617783,272.730255 157.124756,273.399292 
z"/>
<path fill="#060606" opacity="1.000000" stroke="none" 
	d="
M120.050026,299.948944 
	C120.383797,300.092255 120.602310,300.350006 120.820831,300.607758 
	C120.556671,300.651184 120.292511,300.694611 119.865295,300.514099 
	C119.702232,300.290192 119.934769,300.063385 120.050026,299.948944 
z"/>
<path fill="#171717" opacity="1.000000" stroke="none" 
	d="
M372.096100,398.003662 
	C373.380707,396.060852 374.645416,394.505463 375.969116,392.877533 
	C378.351410,395.659088 380.248047,397.873627 382.174713,400.123199 
	C378.294556,404.705231 374.825562,404.288116 372.096100,398.003662 
z"/>
<path fill="#171717" opacity="1.000000" stroke="none" 
	d="
M380.587311,385.115051 
	C379.113403,385.679596 377.105530,386.488190 376.895325,386.156769 
	C376.113220,384.923431 375.215942,382.974792 375.712311,381.946411 
	C376.184631,380.967865 378.344147,380.803650 379.761871,380.281433 
	C380.134094,381.799561 380.506317,383.317657 380.587311,385.115051 
z"/>
<path fill="#040404" opacity="1.000000" stroke="none" 
	d="
M618.111328,385.086426 
	C623.257202,396.179504 617.506470,402.855377 603.950500,401.736145 
	C603.950500,395.049164 603.950500,388.325165 603.950500,381.301727 
	C608.996521,380.562103 614.005066,380.122437 618.111328,385.086426 
z"/>
<path fill="#171717" opacity="1.000000" stroke="none" 
	d="
M764.777222,393.571045 
	C762.010925,394.409485 759.114136,394.859985 755.246460,395.461456 
	C757.187561,390.849274 758.707336,387.237976 760.469177,383.051727 
	C761.996704,386.756256 763.321716,389.969666 764.777222,393.571045 
z"/>
<path fill="#171717" opacity="1.000000" stroke="none" 
	d="
M172.397873,394.972961 
	C171.504791,394.172882 170.470856,393.171539 170.671326,392.614105 
	C171.726486,389.680206 173.093399,386.858398 174.698608,383.210175 
	C176.390808,387.332642 177.800125,390.765930 179.528503,394.976532 
	C176.921524,394.976532 174.874039,394.976532 172.397873,394.972961 
z"/>
<path fill="#171717" opacity="1.000000" stroke="none" 
	d="
M499.191345,393.543579 
	C500.651550,389.957062 502.003265,386.768555 503.532440,383.161469 
	C505.182800,387.065796 506.680389,390.608643 508.696228,395.377563 
	C504.929474,394.814880 502.006165,394.378204 499.191345,393.543579 
z"/>
<path fill="#060606" opacity="1.000000" stroke="none" 
	d="
M807.999878,380.917236 
	C809.948792,380.883179 811.661621,380.436279 812.849487,381.033508 
	C814.460999,381.843750 815.670593,383.453461 817.052612,384.720276 
	C815.623169,386.174408 814.421631,388.096252 812.693848,388.938324 
	C811.249634,389.642212 809.189636,389.082733 806.605469,389.082733 
	C806.930298,386.231293 807.230042,383.600494 807.999878,380.917236 
z"/>
</svg>